<?xml version="1.0" encoding="UTF-8" standalone="no"?>
<!DOCTYPE svg PUBLIC "-//W3C//DTD SVG 1.1//EN"
 "http://www.w3.org/Graphics/SVG/1.1/DTD/svg11.dtd">
<!-- Generated by graphviz version 2.42.4 (0)
 -->
<!-- Title: G Pages: 1 -->
<svg width="1345pt" height="414pt"
 viewBox="0.00 0.00 1345.00 414.00" xmlns="http://www.w3.org/2000/svg" xmlns:xlink="http://www.w3.org/1999/xlink">
<g id="graph0" class="graph" transform="scale(1 1) rotate(0) translate(4 410)">
<title>G</title>
<polygon fill="white" stroke="transparent" points="-4,4 -4,-410 1341,-410 1341,4 -4,4"/>
<!-- cfg -->
<g id="node1" class="node">
<title>cfg</title>
<polygon fill="#f8fafc" stroke="#334155" points="0,-151.5 0,-219.5 179,-219.5 179,-151.5 0,-151.5"/>
<text text-anchor="middle" x="32.5" y="-183.54" font-family="Arial" font-size="8.70">YOLOConfig</text>
<polyline fill="none" stroke="#334155" points="65,-151.5 65,-219.5 "/>
<text text-anchor="middle" x="122" y="-208.54" font-family="Arial" font-size="8.70">model</text>
<text text-anchor="middle" x="122" y="-198.54" font-family="Arial" font-size="8.70">confidence</text>
<text text-anchor="middle" x="122" y="-188.54" font-family="Arial" font-size="8.70">frame_skip</text>
<text text-anchor="middle" x="122" y="-178.54" font-family="Arial" font-size="8.70">adaptive_frame_skip</text>
<text text-anchor="middle" x="122" y="-168.54" font-family="Arial" font-size="8.70">velocity_smoothing_alpha</text>
<text text-anchor="middle" x="122" y="-158.54" font-family="Arial" font-size="8.70">refresh_cooldown_frames</text>
</g>
<!-- yolo -->
<g id="node3" class="node">
<title>yolo</title>
<polygon fill="#f8fafc" stroke="#334155" points="219,-161.5 219,-209.5 445,-209.5 445,-161.5 219,-161.5"/>
<text text-anchor="middle" x="267.5" y="-183.54" font-family="Arial" font-size="8.70">YOLOObjectDetector</text>
<polyline fill="none" stroke="#334155" points="316,-161.5 316,-209.5 "/>
<text text-anchor="middle" x="380.5" y="-198.54" font-family="Arial" font-size="8.70">should_detect()</text>
<text text-anchor="middle" x="380.5" y="-188.54" font-family="Arial" font-size="8.70">detect()</text>
<text text-anchor="middle" x="380.5" y="-178.54" font-family="Arial" font-size="8.70">_update_velocity_smoothing()</text>
<text text-anchor="middle" x="380.5" y="-168.54" font-family="Arial" font-size="8.70">_adaptive_interval()</text>
</g>
<!-- cfg&#45;&gt;yolo -->
<g id="edge1" class="edge">
<title>cfg&#45;&gt;yolo</title>
<path fill="none" stroke="#475569" d="M179.11,-185.5C179.11,-185.5 211.87,-185.5 211.87,-185.5"/>
<polygon fill="#475569" stroke="#475569" points="211.87,-187.95 218.87,-185.5 211.87,-183.05 211.87,-187.95"/>
</g>
<!-- det -->
<g id="node2" class="node">
<title>det</title>
<polygon fill="#f8fafc" stroke="#334155" points="485,-190.5 485,-248.5 594,-248.5 594,-190.5 485,-190.5"/>
<text text-anchor="middle" x="511" y="-217.54" font-family="Arial" font-size="8.70">Detection</text>
<polyline fill="none" stroke="#334155" points="537,-190.5 537,-248.5 "/>
<text text-anchor="middle" x="565.5" y="-237.54" font-family="Arial" font-size="8.70">bbox</text>
<text text-anchor="middle" x="565.5" y="-227.54" font-family="Arial" font-size="8.70">centroid</text>
<text text-anchor="middle" x="565.5" y="-217.54" font-family="Arial" font-size="8.70">area</text>
<text text-anchor="middle" x="565.5" y="-207.54" font-family="Arial" font-size="8.70">label</text>
<text text-anchor="middle" x="565.5" y="-197.54" font-family="Arial" font-size="8.70">confidence</text>
</g>
<!-- tracker -->
<g id="node5" class="node">
<title>tracker</title>
<polygon fill="#f8fafc" stroke="#334155" points="634,-197.5 634,-235.5 773,-235.5 773,-197.5 634,-197.5"/>
<text text-anchor="middle" x="672.5" y="-214.54" font-family="Arial" font-size="8.70">CentroidTracker</text>
<polyline fill="none" stroke="#334155" points="711,-197.5 711,-235.5 "/>
<text text-anchor="middle" x="742" y="-224.54" font-family="Arial" font-size="8.70">update()</text>
<text text-anchor="middle" x="742" y="-214.54" font-family="Arial" font-size="8.70">predict()</text>
<text text-anchor="middle" x="742" y="-204.54" font-family="Arial" font-size="8.70">tracks_list()</text>
</g>
<!-- det&#45;&gt;tracker -->
<g id="edge3" class="edge">
<title>det&#45;&gt;tracker</title>
<path fill="none" stroke="#475569" d="M594.11,-216.5C594.11,-216.5 626.96,-216.5 626.96,-216.5"/>
<polygon fill="#475569" stroke="#475569" points="626.96,-218.95 633.96,-216.5 626.96,-214.05 626.96,-218.95"/>
</g>
<!-- yolo&#45;&gt;det -->
<g id="edge2" class="edge">
<title>yolo&#45;&gt;det</title>
<path fill="none" stroke="#475569" d="M445.16,-200C445.16,-200 477.77,-200 477.77,-200"/>
<polygon fill="#475569" stroke="#475569" points="477.77,-202.45 484.77,-200 477.77,-197.55 477.77,-202.45"/>
</g>
<!-- app -->
<g id="node10" class="node">
<title>app</title>
<polygon fill="#f8fafc" stroke="#334155" points="1186,-158.5 1186,-206.5 1337,-206.5 1337,-158.5 1186,-158.5"/>
<text text-anchor="middle" x="1220" y="-180.54" font-family="Arial" font-size="8.70">Streamlit App</text>
<polyline fill="none" stroke="#334155" points="1254,-158.5 1254,-206.5 "/>
<text text-anchor="middle" x="1295.5" y="-195.54" font-family="Arial" font-size="8.70">process_video()</text>
<text text-anchor="middle" x="1295.5" y="-185.54" font-family="Arial" font-size="8.70">sidebar controls</text>
<text text-anchor="middle" x="1295.5" y="-175.54" font-family="Arial" font-size="8.70">dashboard + CSV</text>
<text text-anchor="middle" x="1295.5" y="-165.54" font-family="Arial" font-size="8.70">video output</text>
</g>
<!-- yolo&#45;&gt;app -->
<g id="edge9" class="edge">
<title>yolo&#45;&gt;app</title>
<path fill="none" stroke="#475569" d="M445.05,-175.5C445.05,-175.5 1178.81,-175.5 1178.81,-175.5"/>
<polygon fill="#475569" stroke="#475569" points="1178.81,-177.95 1185.81,-175.5 1178.81,-173.05 1178.81,-177.95"/>
</g>
<!-- trk -->
<g id="node4" class="node">
<title>trk</title>
<polygon fill="#f8fafc" stroke="#334155" points="813,-327.5 813,-405.5 922,-405.5 922,-327.5 813,-327.5"/>
<text text-anchor="middle" x="832" y="-364.54" font-family="Arial" font-size="8.70">Track</text>
<polyline fill="none" stroke="#334155" points="851,-327.5 851,-405.5 "/>
<text text-anchor="middle" x="886.5" y="-394.54" font-family="Arial" font-size="8.70">object_id</text>
<text text-anchor="middle" x="886.5" y="-384.54" font-family="Arial" font-size="8.70">bbox</text>
<text text-anchor="middle" x="886.5" y="-374.54" font-family="Arial" font-size="8.70">centroid</text>
<text text-anchor="middle" x="886.5" y="-364.54" font-family="Arial" font-size="8.70">label</text>
<text text-anchor="middle" x="886.5" y="-354.54" font-family="Arial" font-size="8.70">history</text>
<text text-anchor="middle" x="886.5" y="-344.54" font-family="Arial" font-size="8.70">disappeared</text>
<text text-anchor="middle" x="886.5" y="-334.54" font-family="Arial" font-size="8.70">prediction_age</text>
</g>
<!-- evt -->
<g id="node7" class="node">
<title>evt</title>
<polygon fill="#f8fafc" stroke="#334155" points="962,-265.5 962,-303.5 1146,-303.5 1146,-265.5 962,-265.5"/>
<text text-anchor="middle" x="997" y="-282.54" font-family="Arial" font-size="8.70">EventDetector</text>
<polyline fill="none" stroke="#334155" points="1032,-265.5 1032,-303.5 "/>
<text text-anchor="middle" x="1089" y="-292.54" font-family="Arial" font-size="8.70">update()</text>
<text text-anchor="middle" x="1089" y="-282.54" font-family="Arial" font-size="8.70">ENTRY / EXIT</text>
<text text-anchor="middle" x="1089" y="-272.54" font-family="Arial" font-size="8.70">state retention + cooldown</text>
</g>
<!-- trk&#45;&gt;evt -->
<g id="edge6" class="edge">
<title>trk&#45;&gt;evt</title>
<path fill="none" stroke="#475569" d="M919,-327.18C919,-308.28 919,-289.67 919,-289.67 919,-289.67 954.71,-289.67 954.71,-289.67"/>
<polygon fill="#475569" stroke="#475569" points="954.71,-292.12 961.71,-289.67 954.71,-287.22 954.71,-292.12"/>
</g>
<!-- tracker&#45;&gt;trk -->
<g id="edge4" class="edge">
<title>tracker&#45;&gt;trk</title>
<path fill="none" stroke="#475569" d="M780.12,-221.5C780.12,-221.5 817,-221.5 817,-221.5 817,-221.5 817,-320.26 817,-320.26"/>
<polygon fill="#475569" stroke="#475569" points="780.12,-219.05 773.12,-221.5 780.12,-223.95 780.12,-219.05"/>
<polygon fill="#475569" stroke="#475569" points="814.55,-320.26 817,-327.26 819.45,-320.26 814.55,-320.26"/>
</g>
<!-- tracker&#45;&gt;app -->
<g id="edge10" class="edge">
<title>tracker&#45;&gt;app</title>
<path fill="none" stroke="#475569" d="M773.04,-200.33C773.04,-200.33 1178.72,-200.33 1178.72,-200.33"/>
<polygon fill="#475569" stroke="#475569" points="1178.72,-202.78 1185.72,-200.33 1178.72,-197.88 1178.72,-202.78"/>
</g>
<!-- zone -->
<g id="node6" class="node">
<title>zone</title>
<polygon fill="#f8fafc" stroke="#334155" points="820.5,-265.5 820.5,-301.5 914.5,-301.5 914.5,-265.5 820.5,-265.5"/>
<text text-anchor="middle" x="838" y="-281.54" font-family="Arial" font-size="8.70">Zone</text>
<polyline fill="none" stroke="#334155" points="855.5,-265.5 855.5,-301.5 "/>
<text text-anchor="middle" x="885" y="-286.54" font-family="Arial" font-size="8.70">x1 y1 x2 y2</text>
<text text-anchor="middle" x="885" y="-276.54" font-family="Arial" font-size="8.70">contains()</text>
</g>
<!-- zone&#45;&gt;evt -->
<g id="edge5" class="edge">
<title>zone&#45;&gt;evt</title>
<path fill="none" stroke="#475569" d="M914.56,-277.33C914.56,-277.33 954.86,-277.33 954.86,-277.33"/>
<polygon fill="#475569" stroke="#475569" points="954.86,-279.78 961.86,-277.33 954.86,-274.88 954.86,-279.78"/>
</g>
<!-- evt&#45;&gt;app -->
<g id="edge11" class="edge">
<title>evt&#45;&gt;app</title>
<path fill="none" stroke="#475569" d="M1146.14,-284.5C1201.78,-284.5 1262,-284.5 1262,-284.5 1262,-284.5 1262,-213.67 1262,-213.67"/>
<polygon fill="#475569" stroke="#475569" points="1264.45,-213.67 1262,-206.67 1259.55,-213.67 1264.45,-213.67"/>
</g>
<!-- flow -->
<g id="node8" class="node">
<title>flow</title>
<polygon fill="#f8fafc" stroke="#334155" points="967,-74.5 967,-112.5 1141,-112.5 1141,-74.5 967,-74.5"/>
<text text-anchor="middle" x="1014.5" y="-91.54" font-family="Arial" font-size="8.70">OpticalFlowAnalyzer</text>
<polyline fill="none" stroke="#334155" points="1062,-74.5 1062,-112.5 "/>
<text text-anchor="middle" x="1101.5" y="-101.54" font-family="Arial" font-size="8.70">update()</text>
<text text-anchor="middle" x="1101.5" y="-91.54" font-family="Arial" font-size="8.70">mean magnitude</text>
<text text-anchor="middle" x="1101.5" y="-81.54" font-family="Arial" font-size="8.70">last_vectors</text>
</g>
<!-- flow&#45;&gt;app -->
<g id="edge7" class="edge">
<title>flow&#45;&gt;app</title>
<path fill="none" stroke="#475569" d="M1141.21,-93.5C1188.35,-93.5 1237,-93.5 1237,-93.5 1237,-93.5 1237,-151.18 1237,-151.18"/>
<polygon fill="#475569" stroke="#475569" points="1234.55,-151.18 1237,-158.18 1239.45,-151.18 1234.55,-151.18"/>
</g>
<!-- stats -->
<g id="node9" class="node">
<title>stats</title>
<polygon fill="#f8fafc" stroke="#334155" points="970.5,-0.5 970.5,-48.5 1137.5,-48.5 1137.5,-0.5 970.5,-0.5"/>
<text text-anchor="middle" x="1010" y="-22.54" font-family="Arial" font-size="8.70">ProcessingStats</text>
<polyline fill="none" stroke="#334155" points="1049.5,-0.5 1049.5,-48.5 "/>
<text text-anchor="middle" x="1093.5" y="-37.54" font-family="Arial" font-size="8.70">frame_count</text>
<text text-anchor="middle" x="1093.5" y="-27.54" font-family="Arial" font-size="8.70">max_active_tracks</text>
<text text-anchor="middle" x="1093.5" y="-17.54" font-family="Arial" font-size="8.70">mean_flow</text>
<text text-anchor="middle" x="1093.5" y="-7.54" font-family="Arial" font-size="8.70">zone_events</text>
</g>
<!-- stats&#45;&gt;app -->
<g id="edge8" class="edge">
<title>stats&#45;&gt;app</title>
<path fill="none" stroke="#475569" d="M1137.79,-24.5C1204.59,-24.5 1287,-24.5 1287,-24.5 1287,-24.5 1287,-151.16 1287,-151.16"/>
<polygon fill="#475569" stroke="#475569" points="1284.55,-151.16 1287,-158.16 1289.45,-151.16 1284.55,-151.16"/>
</g>
<!-- app&#45;&gt;tracker -->
<g id="edge12" class="edge">
<title>app&#45;&gt;tracker</title>
<path fill="none" stroke="#475569" d="M1185.96,-203.67C1185.96,-203.67 780.1,-203.67 780.1,-203.67"/>
<polygon fill="#475569" stroke="#475569" points="780.1,-201.22 773.1,-203.67 780.1,-206.12 780.1,-201.22"/>
</g>
</g>
</svg>
